<!-- SPDX-License-Identifier: Apache-2.0 -->
<!-- Copyright (c) 2026 Praxis Contributors -->
<svg xmlns="http://www.w3.org/2000/svg" viewBox="0 0 1560 560" font-family="IBM Plex Sans">
  <defs>
    <marker id="arrow" markerWidth="6" markerHeight="5" refX="4" refY="2.25" orient="auto">
      <path d="M0,0 L5,2.25 L0,4.5 z" fill="#9e9e9e"/>
    </marker>
  </defs>
  <rect width="1560" height="560" fill="#ffffff"/>

  <!-- identical request -->
  <rect x="40" y="230" width="330" height="110" rx="10" fill="#f0f0f0"/>
  <text x="205" y="279" font-size="25" fill="#161616" text-anchor="middle" font-family="IBM Plex Mono">get_compensation</text>
  <text x="205" y="313" font-size="20" fill="#5f5f5f" text-anchor="middle" font-style="italic">identical request</text>

  <line x1="375" y1="285" x2="548" y2="285" stroke="#9e9e9e" stroke-width="4.5" marker-end="url(#arrow)"/>

  <!-- PPE -->
  <rect x="560" y="200" width="280" height="170" rx="16" fill="#161616"/>
  <text x="700" y="275" font-size="32" fill="#ffffff" text-anchor="middle">PPE</text>
  <text x="700" y="312" font-size="20" fill="#bdbdbd" text-anchor="middle">APL policy</text>

  <!-- three outcomes -->
  <path d="M 845 255 H 937 Q 955 255 955 237 V 128 Q 955 110 973 110 H 1148" fill="none" stroke="#9e9e9e" stroke-width="4.5" marker-end="url(#arrow)"/>
  <text x="1055" y="88" font-size="20" fill="#5f5f5f" text-anchor="middle" font-style="italic">HR + view_ssn</text>

  <line x1="845" y1="285" x2="1148" y2="285" stroke="#9e9e9e" stroke-width="4.5" marker-end="url(#arrow)"/>
  <text x="1060" y="263" font-size="20" fill="#5f5f5f" text-anchor="middle" font-style="italic">HR, no view_ssn</text>

  <path d="M 845 315 H 937 Q 955 315 955 333 V 442 Q 955 460 973 460 H 1148" fill="none" stroke="#9e9e9e" stroke-width="4.5" marker-end="url(#arrow)"/>
  <text x="1055" y="438" font-size="20" fill="#5f5f5f" text-anchor="middle" font-style="italic">not HR</text>

  <rect x="1160" y="65" width="360" height="90" rx="10" fill="#f0f0f0"/>
  <text x="1340" y="120" font-size="24" fill="#161616" text-anchor="middle">full record</text>

  <rect x="1160" y="240" width="360" height="90" rx="10" fill="#f0f0f0"/>
  <text x="1340" y="295" font-size="24" fill="#161616" text-anchor="middle">record, SSN redacted</text>

  <rect x="1160" y="415" width="360" height="90" rx="10" fill="#f0f0f0" stroke="#8a8a8a" stroke-width="2.5" stroke-dasharray="7 7"/>
  <text x="1340" y="470" font-size="24" fill="#161616" text-anchor="middle">denied</text>
</svg>
